<svg width="16" height="27" viewBox="0 0 16 27" fill="none" xmlns="http://www.w3.org/2000/svg">
<path opacity="0.75" d="M0.875 13.4238C0.875 13.2383 0.90918 13.0674 0.977539 12.9111C1.0459 12.7451 1.14844 12.5938 1.28516 12.457L12.9014 1.08984C13.165 0.835938 13.4824 0.708984 13.8535 0.708984C14.1074 0.708984 14.332 0.767578 14.5273 0.884766C14.7324 1.00195 14.8936 1.16309 15.0107 1.36816C15.1377 1.56348 15.2012 1.78809 15.2012 2.04199C15.2012 2.40332 15.0693 2.7207 14.8057 2.99414L4.1416 13.4238L14.8057 23.8535C15.0693 24.127 15.2012 24.4443 15.2012 24.8057C15.2012 25.0596 15.1377 25.2842 15.0107 25.4795C14.8936 25.6846 14.7324 25.8457 14.5273 25.9629C14.332 26.0801 14.1074 26.1387 13.8535 26.1387C13.4824 26.1387 13.165 26.0068 12.9014 25.7432L1.28516 14.3906C1.14844 14.2539 1.0459 14.1074 0.977539 13.9512C0.90918 13.7852 0.875 13.6094 0.875 13.4238Z" fill="#ED217C"/>
</svg>
