<svg width="19" height="34" viewBox="0 0 19 34" fill="none" xmlns="http://www.w3.org/2000/svg">
<path d="M0.119141 17C0.119141 16.765 0.162435 16.5485 0.249023 16.3506C0.335612 16.1403 0.465495 15.9486 0.638672 15.7754L15.3525 1.37695C15.6865 1.05534 16.0885 0.894531 16.5586 0.894531C16.8802 0.894531 17.1647 0.96875 17.4121 1.11719C17.6719 1.26562 17.876 1.46973 18.0244 1.72949C18.1852 1.97689 18.2656 2.26139 18.2656 2.58301C18.2656 3.04069 18.0986 3.44271 17.7646 3.78906L4.25684 17L17.7646 30.2109C18.0986 30.5573 18.2656 30.9593 18.2656 31.417C18.2656 31.7386 18.1852 32.0231 18.0244 32.2705C17.876 32.5303 17.6719 32.7344 17.4121 32.8828C17.1647 33.0312 16.8802 33.1055 16.5586 33.1055C16.0885 33.1055 15.6865 32.9385 15.3525 32.6045L0.638672 18.2246C0.465495 18.0514 0.335612 17.8659 0.249023 17.668C0.162435 17.4577 0.119141 17.235 0.119141 17Z" fill="black"/>
</svg>
