<svg width="20" height="34" viewBox="0 0 20 34" fill="none" xmlns="http://www.w3.org/2000/svg">
<path d="M0 17C0.0123698 16.6165 0.0865885 16.264 0.222656 15.9424C0.371094 15.6208 0.59375 15.3115 0.890625 15.0146L15.1777 1.04297C15.6478 0.572917 16.223 0.337891 16.9033 0.337891C17.3734 0.337891 17.7939 0.449219 18.165 0.671875C18.5485 0.894531 18.8516 1.19759 19.0742 1.58105C19.3092 1.95215 19.4268 2.36654 19.4268 2.82422C19.4268 3.51693 19.167 4.12305 18.6475 4.64258L5.9375 17L18.6475 29.3574C19.167 29.8893 19.4268 30.4954 19.4268 31.1758C19.4268 31.6458 19.3092 32.0664 19.0742 32.4375C18.8516 32.8086 18.5485 33.1055 18.165 33.3281C17.7939 33.5508 17.3734 33.6621 16.9033 33.6621C16.223 33.6621 15.6478 33.4271 15.1777 32.957L0.890625 18.9854C0.58138 18.6885 0.352539 18.3792 0.204102 18.0576C0.0680339 17.7236 0 17.3711 0 17Z" fill="white"/>
</svg>
