<svg width="42" height="38" viewBox="0 0 42 38" fill="none" xmlns="http://www.w3.org/2000/svg">
<path d="M22.4347 7.92285C22.9171 7.92285 23.3315 8.09603 23.6779 8.44238C24.0242 8.77637 24.1974 9.18457 24.1974 9.66699V23.0449L22.1378 16.6992L28.5763 25.4385C28.9103 25.8838 29.0525 26.3477 29.0031 26.8301C28.9659 27.3125 28.7433 27.696 28.3351 27.9805C27.8898 28.2897 27.4259 28.401 26.9435 28.3145C26.4734 28.2279 26.0529 27.9434 25.6818 27.4609L21.1915 21.5234C20.8575 21.0905 20.6906 20.6452 20.6906 20.1875V9.66699C20.6906 9.18457 20.8575 8.77637 21.1915 8.44238C21.5379 8.09603 21.9523 7.92285 22.4347 7.92285ZM22.8429 37.9258C20.7648 37.9258 18.7794 37.5918 16.8868 36.9238C14.9943 36.2682 13.2563 35.3405 11.673 34.1406C10.0896 32.9531 8.71041 31.5739 7.53528 30.0029C7.21366 29.5947 7.08997 29.168 7.16418 28.7227C7.25077 28.2773 7.47961 27.9372 7.85071 27.7021C8.24654 27.4671 8.64237 27.4053 9.03821 27.5166C9.44641 27.6156 9.79277 27.8568 10.0773 28.2402C11.0174 29.5514 12.143 30.6956 13.4542 31.6729C14.7778 32.6501 16.2312 33.4046 17.8146 33.9365C19.3979 34.4808 21.074 34.7591 22.8429 34.7715C25.0323 34.7839 27.0795 34.3818 28.9845 33.5654C30.8894 32.749 32.5594 31.6234 33.9943 30.1885C35.4415 28.7412 36.5734 27.0651 37.3898 25.1602C38.2062 23.2428 38.6144 21.1895 38.6144 19C38.6144 16.8105 38.2062 14.7633 37.3898 12.8584C36.5734 10.9535 35.4415 9.28353 33.9943 7.84863C32.5594 6.40137 30.8894 5.27572 28.9845 4.47168C27.0795 3.65527 25.0323 3.24707 22.8429 3.24707C20.6534 3.24707 18.6062 3.65527 16.7013 4.47168C14.7963 5.27572 13.1202 6.39518 11.673 7.83008C10.2257 9.26497 9.09387 10.9349 8.27747 12.8398C7.47343 14.7448 7.07141 16.792 7.07141 18.9814H3.91711C3.91711 16.3962 4.41191 13.9655 5.40149 11.6895C6.39107 9.40104 7.75793 7.39095 9.50208 5.65918C11.2462 3.91504 13.2563 2.54818 15.5323 1.55859C17.8208 0.56901 20.2576 0.0742188 22.8429 0.0742188C25.4282 0.0742188 27.8588 0.56901 30.1349 1.55859C32.4233 2.54818 34.4396 3.91504 36.1837 5.65918C37.9279 7.40332 39.2947 9.4196 40.2843 11.708C41.2739 13.984 41.7687 16.4147 41.7687 19C41.7687 21.5853 41.2739 24.0221 40.2843 26.3105C39.2947 28.5866 37.9279 30.5967 36.1837 32.3408C34.4396 34.085 32.4233 35.4518 30.1349 36.4414C27.8588 37.431 25.4282 37.9258 22.8429 37.9258ZM1.63489 15.4189H10.1515C10.5844 15.4189 10.9122 15.5117 11.1349 15.6973C11.3575 15.8704 11.4627 16.1055 11.4503 16.4023C11.4503 16.6868 11.3328 17.0023 11.0978 17.3486L6.94153 23.2676C6.64465 23.6882 6.2983 23.9046 5.90247 23.917C5.50663 23.917 5.15409 23.7005 4.84485 23.2676L0.688599 17.3672C0.453573 17.0208 0.329875 16.6992 0.317505 16.4023C0.305135 16.1055 0.410278 15.8704 0.632935 15.6973C0.855591 15.5117 1.18958 15.4189 1.63489 15.4189Z" fill="black"/>
</svg>
