<svg width="39" height="20" viewBox="0 0 39 20" fill="none" xmlns="http://www.w3.org/2000/svg">
<path d="M2.172 19.5C1.78853 19.5 1.46073 19.3639 1.1886 19.0918C0.916463 18.8073 0.780396 18.4671 0.780396 18.0713C0.780396 17.6878 0.916463 17.36 1.1886 17.0879C1.46073 16.8158 1.78853 16.6797 2.172 16.6797H36.9064C37.2898 16.6797 37.6176 16.8158 37.8898 17.0879C38.1743 17.36 38.3165 17.6878 38.3165 18.0713C38.3165 18.4671 38.1743 18.8073 37.8898 19.0918C37.6176 19.3639 37.2898 19.5 36.9064 19.5H2.172ZM2.172 11.3916C1.78853 11.3916 1.46073 11.2555 1.1886 10.9834C0.916463 10.7113 0.780396 10.3835 0.780396 10C0.780396 9.60417 0.916463 9.27018 1.1886 8.99805C1.46073 8.71354 1.78853 8.57129 2.172 8.57129H36.9064C37.2898 8.57129 37.6176 8.71354 37.8898 8.99805C38.1743 9.27018 38.3165 9.60417 38.3165 10C38.3165 10.3835 38.1743 10.7113 37.8898 10.9834C37.6176 11.2555 37.2898 11.3916 36.9064 11.3916H2.172ZM2.172 3.30176C1.78853 3.30176 1.46073 3.16569 1.1886 2.89355C0.916463 2.62142 0.780396 2.29362 0.780396 1.91016C0.780396 1.51432 0.916463 1.18034 1.1886 0.908203C1.46073 0.636068 1.78853 0.5 2.172 0.5H36.9064C37.2898 0.5 37.6176 0.636068 37.8898 0.908203C38.1743 1.18034 38.3165 1.51432 38.3165 1.91016C38.3165 2.29362 38.1743 2.62142 37.8898 2.89355C37.6176 3.16569 37.2898 3.30176 36.9064 3.30176H2.172Z" fill="black"/>
</svg>
