<svg width="31" height="32" viewBox="0 0 31 32" fill="none" xmlns="http://www.w3.org/2000/svg">
<path d="M0.265625 16C0.265625 15.5423 0.426432 15.1527 0.748047 14.8311C1.08203 14.4971 1.47168 14.3301 1.91699 14.3301H13.9219V2.34375C13.9219 1.89844 14.0827 1.51497 14.4043 1.19336C14.7259 0.859375 15.1156 0.692383 15.5732 0.692383C16.0309 0.692383 16.4206 0.859375 16.7422 1.19336C17.0762 1.51497 17.2432 1.89844 17.2432 2.34375V14.3301H29.2295C29.6748 14.3301 30.0583 14.4971 30.3799 14.8311C30.7139 15.1527 30.8809 15.5423 30.8809 16C30.8809 16.4577 30.7139 16.8473 30.3799 17.1689C30.0583 17.4906 29.6748 17.6514 29.2295 17.6514H17.2432V29.6562C17.2432 30.1016 17.0762 30.485 16.7422 30.8066C16.4206 31.1406 16.0309 31.3076 15.5732 31.3076C15.1156 31.3076 14.7259 31.1406 14.4043 30.8066C14.0827 30.485 13.9219 30.1016 13.9219 29.6562V17.6514H1.91699C1.47168 17.6514 1.08203 17.4906 0.748047 17.1689C0.426432 16.8473 0.265625 16.4577 0.265625 16Z" fill="black"/>
</svg>
