<svg width="25" height="25" viewBox="0 0 25 25" fill="none" xmlns="http://www.w3.org/2000/svg">
<path d="M2.36967 25C1.71801 25 1.15521 24.763 0.68128 24.2891C0.227093 23.8152 0 23.2524 0 22.6007C0 21.9491 0.236967 21.3961 0.7109 20.9419L9.12322 12.5L0.7109 4.05806C0.236967 3.60387 0 3.05095 0 2.39929C0 1.74763 0.227093 1.19471 0.68128 0.740521C1.15521 0.286335 1.71801 0.0592417 2.36967 0.0592417C3.04107 0.0592417 3.594 0.296209 4.02844 0.770142L12.4704 9.18246L21.0012 0.740521C21.4751 0.24684 22.0182 0 22.6303 0C23.282 0 23.8349 0.236967 24.2891 0.7109C24.763 1.16509 25 1.71801 25 2.36967C25 3.00158 24.763 3.5545 24.2891 4.02844L15.8472 12.5L24.2595 20.9123C24.7334 21.3863 24.9704 21.9491 24.9704 22.6007C24.9704 23.2524 24.7334 23.8152 24.2595 24.2891C23.8053 24.763 23.2524 25 22.6007 25C21.9491 25 21.3863 24.7532 20.9123 24.2595L12.4704 15.8472L4.08768 24.2595C3.63349 24.7532 3.06082 25 2.36967 25Z" fill="black"/>
</svg>
