<svg width="14" height="14" viewBox="0 0 14 14" fill="none" xmlns="http://www.w3.org/2000/svg">
<path d="M1.56299 13.4224C1.1333 13.4224 0.762695 13.272 0.451172 12.9712C0.150391 12.6597 0 12.2837 0 11.8433C0 11.4243 0.155762 11.0591 0.467285 10.7476L4.49561 6.70312L0.467285 2.6748C0.155762 2.36328 0 1.99805 0 1.5791C0 1.13867 0.150391 0.768066 0.451172 0.467285C0.762695 0.166504 1.1333 0.0161133 1.56299 0.0161133C2.0249 0.0161133 2.40625 0.171875 2.70703 0.483398L6.71924 4.49561L10.7798 0.467285C11.0913 0.155762 11.4673 0 11.9077 0C12.3481 0 12.7188 0.155762 13.0195 0.467285C13.3203 0.768066 13.4707 1.1333 13.4707 1.56299C13.4707 1.98193 13.3149 2.34717 13.0034 2.65869L8.9751 6.70312L12.9873 10.7314C13.2988 11.0537 13.4546 11.4243 13.4546 11.8433C13.4546 12.2837 13.3042 12.6597 13.0034 12.9712C12.7026 13.272 12.332 13.4224 11.8916 13.4224C11.4404 13.4224 11.0591 13.2666 10.7476 12.9551L6.71924 8.94287L2.72314 12.9551C2.42236 13.2666 2.03564 13.4224 1.56299 13.4224Z" fill="white"/>
</svg>
